<svg width="173" height="34" viewBox="0 0 173 34" fill="none" xmlns="http://www.w3.org/2000/svg">
<path d="M0 0.292969H12.7539V4.43359H5.05859V14.2578H11.0938V18.2422H5.05859V33.6523H0V0.292969ZM22.9688 33.9453C22.1615 33.9453 21.276 33.8281 20.3125 33.5938C19.362 33.3594 18.457 32.8711 17.5977 32.1289C16.7383 31.3867 16.0352 30.2734 15.4883 28.7891C14.9414 27.2917 14.668 25.293 14.668 22.793V10.9766C14.668 8.97135 14.8503 7.30469 15.2148 5.97656C15.5924 4.63542 16.0807 3.56771 16.6797 2.77344C17.2917 1.96615 17.9622 1.36719 18.6914 0.976562C19.4336 0.572917 20.1758 0.3125 20.918 0.195312C21.6602 0.0651042 22.3438 0 22.9688 0C23.5677 0 24.2318 0.0585938 24.9609 0.175781C25.7031 0.292969 26.4388 0.546875 27.168 0.9375C27.8971 1.3151 28.5612 1.90104 29.1602 2.69531C29.7721 3.48958 30.2604 4.55729 30.625 5.89844C31.0026 7.23958 31.1914 8.93229 31.1914 10.9766V22.793C31.1914 25.2669 30.9049 27.2461 30.332 28.7305C29.7591 30.2148 29.0365 31.3346 28.1641 32.0898C27.2917 32.832 26.3867 33.3268 25.4492 33.5742C24.5247 33.8216 23.6979 33.9453 22.9688 33.9453ZM22.9688 29.9805C23.9714 29.9805 24.7135 29.6029 25.1953 28.8477C25.6771 28.0924 25.918 26.6797 25.918 24.6094V9.57031C25.918 7.4349 25.6771 5.97005 25.1953 5.17578C24.7135 4.36849 23.9714 3.96484 22.9688 3.96484C21.9401 3.96484 21.1784 4.36849 20.6836 5.17578C20.2018 5.97005 19.9609 7.4349 19.9609 9.57031V24.6094C19.9609 26.6797 20.2018 28.0924 20.6836 28.8477C21.1784 29.6029 21.9401 29.9805 22.9688 29.9805ZM38.4375 4.27734H33.0664V0.292969H48.8477V4.27734H43.4961V33.6523H38.4375V4.27734ZM59.0234 33.9453C58.2161 33.9453 57.3307 33.8281 56.3672 33.5938C55.4167 33.3594 54.5117 32.8711 53.6523 32.1289C52.793 31.3867 52.0898 30.2734 51.543 28.7891C50.9961 27.2917 50.7227 25.293 50.7227 22.793V10.9766C50.7227 8.97135 50.9049 7.30469 51.2695 5.97656C51.6471 4.63542 52.1354 3.56771 52.7344 2.77344C53.3464 1.96615 54.0169 1.36719 54.7461 0.976562C55.4883 0.572917 56.2305 0.3125 56.9727 0.195312C57.7148 0.0651042 58.3984 0 59.0234 0C59.6224 0 60.2865 0.0585938 61.0156 0.175781C61.7578 0.292969 62.4935 0.546875 63.2227 0.9375C63.9518 1.3151 64.6159 1.90104 65.2148 2.69531C65.8268 3.48958 66.3151 4.55729 66.6797 5.89844C67.0573 7.23958 67.2461 8.93229 67.2461 10.9766V22.793C67.2461 25.2669 66.9596 27.2461 66.3867 28.7305C65.8138 30.2148 65.0911 31.3346 64.2188 32.0898C63.3464 32.832 62.4414 33.3268 61.5039 33.5742C60.5794 33.8216 59.7526 33.9453 59.0234 33.9453ZM59.0234 29.9805C60.026 29.9805 60.7682 29.6029 61.25 28.8477C61.7318 28.0924 61.9727 26.6797 61.9727 24.6094V9.57031C61.9727 7.4349 61.7318 5.97005 61.25 5.17578C60.7682 4.36849 60.026 3.96484 59.0234 3.96484C57.9948 3.96484 57.2331 4.36849 56.7383 5.17578C56.2565 5.97005 56.0156 7.4349 56.0156 9.57031V24.6094C56.0156 26.6797 56.2565 28.0924 56.7383 28.8477C57.2331 29.6029 57.9948 29.9805 59.0234 29.9805ZM72.2266 0.292969H77.3438C78.4766 0.292969 79.6484 0.364583 80.8594 0.507812C82.0703 0.651042 83.1966 0.970052 84.2383 1.46484C85.2799 1.94661 86.1198 2.69531 86.7578 3.71094C87.4089 4.72656 87.7344 6.10677 87.7344 7.85156V9.47266C87.7344 11.2435 87.3112 12.6888 86.4648 13.8086C85.6315 14.9154 84.7005 15.6576 83.6719 16.0352V16.1914C85.1823 16.7904 86.3281 17.6497 87.1094 18.7695C87.8906 19.8893 88.2812 21.4388 88.2812 23.418V25.1172C88.2812 26.9271 87.9883 28.3984 87.4023 29.5312C86.8294 30.651 86.0417 31.5104 85.0391 32.1094C84.0365 32.7083 82.8906 33.1185 81.6016 33.3398C80.3125 33.5482 78.9583 33.6523 77.5391 33.6523H72.2266V0.292969ZM78.1641 14.5703C79.5182 14.5703 80.599 14.2383 81.4062 13.5742C82.2135 12.8971 82.6172 11.7773 82.6172 10.2148V8.84766C82.6172 7.29818 82.2917 6.10026 81.6406 5.25391C80.9896 4.40755 79.8307 3.98438 78.1641 3.98438H77.2852V14.5703H78.1641ZM78.6328 29.9609C79.987 29.9609 81.0612 29.6289 81.8555 28.9648C82.6628 28.2878 83.0664 27.168 83.0664 25.6055V23.0078C83.0664 21.4453 82.7409 20.2474 82.0898 19.4141C81.4518 18.5677 80.2995 18.1445 78.6328 18.1445H77.2852V29.9609H78.6328ZM95.8789 21.9531L89.3555 0.292969H94.4531L98.3203 16.3867H98.5547L102.422 0.292969H107.5L100.938 21.9531V33.6523H95.8789V21.9531ZM110.312 0.292969H115.371V14.8633H115.527L121.309 0.292969H126.348L119.922 15.9375L127.07 33.6523H121.66L115.527 17.7734H115.371V33.6523H110.312V0.292969ZM129.844 0.292969H134.902V33.6523H129.844V0.292969ZM140.43 0.292969H153.184V4.27734H145.488V14.2578H151.523V18.2422H145.488V29.668H153.184V33.6523H140.43V0.292969ZM156.211 0.292969H160.215L168.359 22.2266H168.477C168.424 21.5365 168.353 20.7682 168.262 19.9219C168.184 19.0625 168.112 18.0339 168.047 16.8359C167.982 15.638 167.949 14.1797 167.949 12.4609V0.292969H172.441V33.6523H168.398L160.293 12.3047H160.137C160.202 13.0859 160.273 13.9388 160.352 14.8633C160.43 15.7878 160.501 16.9531 160.566 18.3594C160.632 19.7656 160.664 21.5951 160.664 23.8477V33.6523H156.211V0.292969Z" fill="#0E100F"/>
</svg>
